<svg width="25" height="24" viewBox="0 0 25 24" fill="none" xmlns="http://www.w3.org/2000/svg">
<path d="M12.5 1C10.3008 1 8.5 2.80078 8.5 5C8.5 5.73047 8.71484 6.41016 9.0625 7H6.5C5.94922 7 5.5 6.55078 5.5 6C5.5 5.44922 5.94922 5 6.5 5C6.5 4.29688 6.62891 3.625 6.85156 3H6.5C4.84766 3 3.5 4.34766 3.5 6V19C3.5 20.1016 4.39844 21 5.5 21H19.5C20.6016 21 21.5 20.1016 21.5 19V9C21.5 8.18359 21.0078 7.48438 20.3086 7.17188C20.4219 6.80078 20.5 6.41016 20.5 6C20.5 3.80078 18.6992 2 16.5 2C16.0938 2 15.6992 2.06641 15.3281 2.17969C14.6016 1.45312 13.6016 1 12.5 1ZM12.5 3C13.6172 3 14.5 3.88281 14.5 5C14.5 6.11719 13.6172 7 12.5 7C11.3828 7 10.5 6.11719 10.5 5C10.5 3.88281 11.3828 3 12.5 3ZM16.5 4C17.6172 4 18.5 4.88281 18.5 6C18.5 6.36719 18.3984 6.70703 18.2305 7H15.9375C16.2852 6.41016 16.5 5.73047 16.5 5C16.5 4.66016 16.4414 4.33203 16.3594 4.01562C16.4102 4.01562 16.4531 4 16.5 4ZM17.5 13C18.0508 13 18.5 13.4492 18.5 14C18.5 14.5508 18.0508 15 17.5 15C16.9492 15 16.5 14.5508 16.5 14C16.5 13.4492 16.9492 13 17.5 13Z" fill="black"/>
</svg>
