<svg width="25" height="25" viewBox="0 0 25 25" fill="none" xmlns="http://www.w3.org/2000/svg">
<path d="M18.8711 8.12787C18.8711 6.53657 18.239 5.01045 17.1137 3.88523C15.9885 2.76001 14.4624 2.12787 12.8711 2.12787C11.2798 2.12787 9.75367 2.76001 8.62845 3.88523C7.50323 5.01045 6.87109 6.53657 6.87109 8.12787C6.87109 15.1279 3.87109 17.1279 3.87109 17.1279H21.8711C21.8711 17.1279 18.8711 15.1279 18.8711 8.12787Z" stroke="black" stroke-width="2" stroke-linecap="round" stroke-linejoin="round"/>
<path d="M14.6011 21.1279C14.4253 21.4309 14.173 21.6825 13.8693 21.8574C13.5657 22.0323 13.2215 22.1243 12.8711 22.1243C12.5207 22.1243 12.1765 22.0323 11.8729 21.8574C11.5693 21.6825 11.3169 21.4309 11.1411 21.1279" stroke="black" stroke-width="2" stroke-linecap="round" stroke-linejoin="round"/>
</svg>
