<svg width="24" height="25" viewBox="0 0 24 25" fill="none" xmlns="http://www.w3.org/2000/svg">
<path d="M16 4.22076H18C18.5304 4.22076 19.0391 4.43148 19.4142 4.80655C19.7893 5.18162 20 5.69033 20 6.22076V20.2208C20 20.7512 19.7893 21.2599 19.4142 21.635C19.0391 22.0101 18.5304 22.2208 18 22.2208H6C5.46957 22.2208 4.96086 22.0101 4.58579 21.635C4.21071 21.2599 4 20.7512 4 20.2208V6.22076C4 5.69033 4.21071 5.18162 4.58579 4.80655C4.96086 4.43148 5.46957 4.22076 6 4.22076H8" stroke="black" stroke-width="2" stroke-linecap="round" stroke-linejoin="round"/>
<path d="M15 2.22076H9C8.44772 2.22076 8 2.66848 8 3.22076V5.22076C8 5.77305 8.44772 6.22076 9 6.22076H15C15.5523 6.22076 16 5.77305 16 5.22076V3.22076C16 2.66848 15.5523 2.22076 15 2.22076Z" stroke="black" stroke-width="2" stroke-linecap="round" stroke-linejoin="round"/>
</svg>
