<svg width="16" height="17" viewBox="0 0 16 17" fill="none" xmlns="http://www.w3.org/2000/svg">
<g clip-path="url(#clip0_3249:15080)">
<path d="M13.3333 6.23825H7.33333C6.59695 6.23825 6 6.8352 6 7.57158V13.5716C6 14.308 6.59695 14.9049 7.33333 14.9049H13.3333C14.0697 14.9049 14.6667 14.308 14.6667 13.5716V7.57158C14.6667 6.8352 14.0697 6.23825 13.3333 6.23825Z" stroke="black" stroke-width="2" stroke-linecap="round" stroke-linejoin="round"/>
<path d="M3.33301 10.2382H2.66634C2.31272 10.2382 1.97358 10.0978 1.72353 9.84772C1.47348 9.59767 1.33301 9.25853 1.33301 8.90491V2.90491C1.33301 2.55129 1.47348 2.21215 1.72353 1.9621C1.97358 1.71205 2.31272 1.57158 2.66634 1.57158H8.66634C9.01996 1.57158 9.3591 1.71205 9.60915 1.9621C9.8592 2.21215 9.99967 2.55129 9.99967 2.90491V3.57158" stroke="black" stroke-width="2" stroke-linecap="round" stroke-linejoin="round"/>
</g>
<defs>
<clipPath id="clip0_3249:15080">
<rect width="16" height="16" fill="white" transform="translate(0 0.238251)"/>
</clipPath>
</defs>
</svg>
