<svg class="w-full h-full" viewBox="0 0 1466 365" fill="none" xmlns="http://www.w3.org/2000/svg">
  <path d="M182.207 364.413C282.837 364.413 364.413 282.837 364.413 182.207C364.413 81.5767 282.837 0 182.207 0C81.5767 0 0 81.5767 0 182.207C0 282.837 81.5767 364.413 182.207 364.413Z" fill="#032343"/>
  <path fill-rule="evenodd" clip-rule="evenodd" d="M174.866 22.247C142.639 23.4865 109.172 35.8815 85.0022 55.0938C78.1849 60.6715 72.6072 65.6295 66.4097 71.827C65.7899 72.4468 65.1702 73.0665 64.5504 73.6863L58.3529 81.1233C53.3949 86.7011 48.4369 94.7578 44.0987 102.195C35.4222 117.689 28.6049 133.802 25.5062 153.634C22.4074 169.748 22.4074 185.861 24.2667 201.975C24.8864 207.552 25.5062 212.51 28.6049 215.609C32.3234 218.708 37.2814 218.708 40.9999 215.609C45.3382 211.271 43.4789 207.552 42.8592 201.975C38.5209 170.367 44.7184 141.859 58.3529 114.59C63.9307 103.434 75.0862 88.5603 85.0022 79.8838C90.58 74.9258 93.059 72.4468 99.2565 68.1085C127.145 48.2765 159.372 38.3605 194.698 41.4593C214.53 43.3185 233.742 49.516 248.616 57.5728C262.251 65.0098 266.589 68.7283 277.125 77.4048C277.745 78.0246 278.364 78.6443 279.604 79.8838C281.463 81.1233 282.703 82.3628 283.942 84.2221C284.562 84.8418 285.182 85.4616 286.421 86.7011C288.28 88.5603 294.478 96.6171 296.337 98.4763C297.577 100.336 298.816 101.575 300.056 103.434C301.295 105.294 301.915 107.153 303.774 108.392C308.112 111.491 313.69 109.632 316.169 106.533C319.888 102.195 317.409 97.2368 314.93 93.5183C305.014 78.6443 293.858 67.4888 280.843 56.953C254.814 36.5012 218.868 21.6272 174.866 22.8667V22.247ZM39.7604 227.384C27.3654 229.863 31.7037 248.456 43.4789 245.977C47.8172 244.738 52.1554 240.399 50.9159 234.822C49.6764 230.483 45.3382 226.765 39.7604 227.384ZM319.888 117.689C307.493 120.168 310.591 138.76 322.986 136.281C334.762 133.802 331.663 115.829 319.888 117.689ZM162.471 219.328L168.049 234.202C168.669 236.681 161.851 248.456 163.71 262.71C164.33 267.668 165.57 269.528 167.429 272.626C177.965 288.12 200.276 288.12 211.431 272.007C219.488 259.612 216.389 247.836 206.473 238.54C204.614 236.681 205.234 237.301 203.994 234.202C202.755 231.103 201.515 228.004 200.276 224.286C199.656 222.426 197.177 215.609 196.557 214.37L189.74 195.777L253.574 171.607L236.221 163.55C230.024 161.071 224.446 158.592 218.249 155.493C216.389 154.874 210.812 151.775 209.572 151.775C207.093 152.395 202.755 154.254 200.276 155.493L163.091 169.748C156.893 172.227 149.456 174.086 149.456 181.523C149.456 186.481 153.794 196.397 155.654 200.735C158.133 206.933 160.612 213.13 162.471 219.328ZM154.414 136.901L248.616 100.955C247.997 99.7158 220.728 86.0813 216.389 83.6023C215.77 82.9826 210.192 80.5036 209.572 79.8838C208.333 79.2641 133.962 108.392 122.807 112.731C117.229 114.59 113.511 116.449 111.651 121.407C109.792 125.745 109.172 133.802 109.172 139.38C109.172 145.577 110.412 151.155 112.891 155.493C114.75 158.592 119.708 162.311 124.666 164.17C130.244 166.029 136.441 165.409 141.399 163.55C151.315 159.212 156.893 147.437 154.414 137.521V136.901ZM319.888 157.353C322.986 179.664 322.986 198.876 316.789 220.567C311.831 239.16 303.154 255.273 293.238 267.668L287.041 275.105C286.421 275.725 285.801 276.345 285.182 277.584C283.322 279.444 282.703 280.683 280.843 281.923L271.547 290.599C270.308 291.839 268.448 293.078 266.589 294.318C248.616 307.332 230.644 316.629 205.854 320.967C162.471 329.024 122.807 315.389 96.1577 294.937C89.9602 289.979 80.0442 281.303 75.7059 275.725C75.0862 275.105 74.4664 273.866 73.8467 273.246C69.5084 267.668 67.0294 264.57 62.6912 258.372C55.8739 247.836 42.2394 255.893 45.9579 265.809C47.8172 270.147 57.1134 282.542 60.8319 286.261C62.0714 287.5 63.9307 289.979 65.1702 291.219C67.0294 292.458 67.6492 294.318 69.5084 295.557C91.1997 317.248 118.469 332.122 149.456 338.32C191.599 346.996 232.503 337.7 264.11 319.108C309.972 291.839 340.339 242.259 341.579 185.861C341.579 178.424 340.959 159.832 339.1 153.634C335.381 143.098 319.268 146.817 321.127 157.972L319.888 157.353Z" fill="url(#paint0_linear)"/>
  <path d="M473.159 131.44V181.64H545.67V199.613H473.159V257.87H452.708V113.468H554.966V131.44H473.779H473.159ZM573.559 104.791H593.391V257.87H573.559V104.791ZM726.018 148.793V258.489H707.425V241.756C703.707 247.334 698.129 251.672 691.312 254.771C684.494 257.87 677.677 259.729 669.62 259.729C654.746 259.729 643.591 255.391 634.914 247.334C626.238 239.277 622.519 227.502 622.519 211.388V148.174H642.351V208.909C642.351 219.445 644.83 227.502 649.788 233.079C654.746 238.657 662.183 241.136 671.48 241.136C682.015 241.136 690.072 238.038 696.27 231.84C702.467 225.643 705.566 216.346 705.566 205.191V148.793H725.398H726.018ZM757.005 148.793H776.837V258.489H757.005V148.793ZM766.921 127.722C763.203 127.722 760.104 126.482 757.005 124.003C754.526 121.524 753.287 118.426 753.287 114.707C753.287 110.989 754.526 107.89 757.005 105.411C759.484 102.932 762.583 101.692 766.921 101.692C770.64 101.692 773.738 102.932 776.837 105.411C779.316 107.89 780.556 110.989 780.556 114.707C780.556 118.426 779.316 121.524 776.837 124.003C774.358 126.482 771.259 127.722 766.921 127.722ZM910.703 104.791V257.87H891.491V240.517C887.153 246.714 881.575 251.052 874.758 254.151C867.941 257.25 860.504 259.109 852.447 259.109C841.911 259.109 832.615 256.63 823.938 252.292C815.262 247.334 809.064 241.136 804.106 232.46C799.148 223.783 796.669 214.487 796.669 203.331C796.669 192.176 799.148 182.88 804.106 174.203C809.064 165.527 815.262 159.329 823.938 154.371C832.615 149.413 841.911 147.554 852.447 147.554C860.504 147.554 867.321 148.793 874.138 151.892C880.955 154.991 886.533 159.329 890.871 164.907V104.791H910.703ZM854.306 241.756C861.123 241.756 867.321 239.897 872.899 236.798C878.476 233.699 882.815 228.741 885.913 223.163C889.012 217.586 890.871 210.769 890.871 203.331C890.871 195.894 889.012 189.077 885.913 182.88C882.815 177.302 878.476 172.344 872.899 169.245C867.321 166.146 861.123 164.287 854.306 164.287C847.489 164.287 840.671 166.146 835.094 169.245C829.516 172.344 825.178 176.682 822.079 182.88C818.98 188.457 817.121 195.275 817.121 203.331C817.121 210.769 818.98 217.586 822.079 223.163C825.178 228.741 829.516 233.699 835.094 236.798C840.671 239.897 846.869 241.756 854.306 241.756ZM1008.62 259.729C994.37 259.729 981.355 256.63 969.58 249.813C957.804 243.615 948.508 234.319 942.311 223.163C935.493 212.008 932.395 198.993 932.395 185.359C932.395 171.104 935.493 158.709 942.311 147.554C949.128 136.398 957.804 127.722 969.58 120.905C981.355 114.707 994.37 110.989 1008.62 110.989C1019.78 110.989 1030.32 112.848 1039.61 116.566C1048.91 120.285 1056.96 125.863 1063.78 133.3L1050.15 146.314C1038.99 135.159 1025.98 128.961 1009.24 128.961C998.708 128.961 988.792 131.44 980.115 136.398C971.439 141.356 964.622 148.174 959.664 156.23C954.706 164.907 952.227 174.203 952.227 184.739C952.227 195.275 954.706 204.571 959.664 213.247C964.622 221.924 971.439 228.122 980.115 233.079C988.792 238.038 998.708 240.517 1009.24 240.517C1025.36 240.517 1038.99 234.939 1050.15 223.163L1063.78 236.178C1056.96 243.615 1048.91 249.193 1039.61 252.912C1030.32 256.63 1019.78 258.489 1008.62 258.489V259.729ZM1125.76 259.109C1114.6 259.109 1105.3 256.63 1096.63 251.672C1087.95 246.714 1081.13 239.897 1076.18 231.84C1071.22 223.163 1068.74 213.867 1068.74 203.331C1068.74 192.796 1071.22 182.88 1076.18 174.203C1081.13 165.527 1087.95 159.329 1096.63 154.371C1105.3 149.413 1115.22 146.934 1125.76 146.934C1136.91 146.934 1146.21 149.413 1154.89 154.371C1163.56 159.329 1170.38 165.527 1175.34 174.203C1180.29 182.88 1182.77 192.176 1182.77 203.331C1182.77 213.867 1180.29 223.783 1175.34 231.84C1170.38 240.517 1163.56 246.714 1154.89 251.672C1146.21 256.63 1136.29 259.109 1125.76 259.109ZM1125.76 241.756C1132.57 241.756 1139.39 239.897 1144.97 236.798C1150.55 233.699 1154.89 228.741 1157.98 223.163C1161.08 217.586 1162.94 210.769 1162.94 203.331C1162.94 195.894 1161.08 189.077 1157.98 182.88C1154.89 177.302 1150.55 172.344 1144.97 169.245C1139.39 166.146 1133.19 164.287 1125.76 164.287C1118.94 164.287 1112.12 166.146 1106.54 169.245C1100.97 172.344 1096.63 176.682 1093.53 182.88C1090.43 188.457 1088.57 195.275 1088.57 203.331C1088.57 210.769 1090.43 217.586 1093.53 223.163C1096.63 228.741 1100.97 233.699 1106.54 236.798C1112.12 239.897 1118.32 241.756 1125.76 241.756ZM1203.23 148.174H1223.06V257.87H1203.23V148.174ZM1213.14 127.102C1209.42 127.102 1206.32 125.863 1203.23 123.384C1200.75 120.905 1199.51 117.806 1199.51 114.087C1199.51 110.369 1200.75 107.27 1203.23 104.791C1205.7 102.312 1208.8 101.073 1213.14 101.073C1216.86 101.073 1219.96 102.312 1223.06 104.791C1225.54 107.27 1226.78 110.369 1226.78 114.087C1226.78 117.806 1225.54 120.905 1223.06 123.384C1220.58 125.863 1217.48 127.102 1213.14 127.102ZM1312.3 146.934C1325.94 146.934 1337.09 151.272 1345.77 159.329C1353.82 167.386 1358.16 179.161 1358.16 194.655V257.87H1338.33V197.134C1338.33 186.598 1335.85 178.541 1330.89 172.964C1325.94 167.386 1318.5 164.907 1309.2 164.907C1298.67 164.907 1289.99 168.006 1283.79 174.203C1277.6 180.401 1274.5 189.697 1274.5 201.472V257.87H1254.66V148.174H1273.88V164.907C1277.6 159.329 1283.17 154.991 1289.99 151.892C1296.81 148.793 1304.86 147.554 1313.54 147.554L1312.3 146.934ZM1418.9 258.489C1410.22 258.489 1401.55 257.25 1392.87 254.771C1384.81 252.292 1378 249.193 1373.66 245.475L1381.71 229.981C1386.67 233.699 1392.25 236.178 1399.07 238.038C1405.88 239.897 1412.7 241.136 1420.14 241.136C1437.49 241.136 1446.17 236.178 1446.17 226.262C1446.17 223.163 1444.93 220.065 1442.45 218.205C1439.97 216.346 1436.87 215.107 1433.77 213.867C1430.05 213.247 1425.1 212.008 1418.9 210.769C1410.22 209.529 1402.79 207.67 1397.21 205.811C1391.63 203.951 1386.67 200.852 1382.95 196.514C1379.23 192.176 1376.76 185.978 1376.76 178.541C1376.76 168.625 1381.09 160.569 1389.15 154.371C1397.21 148.174 1408.36 145.075 1422.62 145.075C1430.05 145.075 1437.49 145.695 1444.31 147.554C1451.75 149.413 1457.32 151.892 1462.28 154.991L1453.6 170.485C1444.93 164.907 1434.39 161.808 1422 161.808C1413.32 161.808 1407.12 163.048 1402.79 166.146C1398.45 168.625 1395.97 172.344 1395.97 177.302C1395.97 181.02 1397.21 183.499 1399.69 185.978C1402.17 187.838 1405.26 189.697 1408.98 190.317C1412.7 191.556 1417.66 192.176 1424.48 193.415C1433.15 194.655 1440.59 196.514 1446.17 198.373C1451.75 200.233 1456.08 203.331 1460.42 207.05C1464.14 211.388 1466 216.966 1466 224.403C1466 234.319 1461.66 242.376 1452.99 247.954C1444.31 253.531 1433.15 256.63 1418.28 256.63L1418.9 258.489Z" fill="black"/>
  <defs>
  <linearGradient id="paint0_linear" x1="246.137" y1="320.967" x2="139.54" y2="37.121" gradientUnits="userSpaceOnUse">
  <stop stop-color="#77BE4D"/>
  <stop offset="1" stop-color="#07C9EB"/>
  </linearGradient>
  </defs>
</svg>
