<svg width="496" height="451" viewBox="0 0 496 451" fill="none" xmlns="http://www.w3.org/2000/svg">
<rect x="48" y="0.598541" width="400" height="450" rx="24" fill="white"/>
<path d="M74.74 53.739H76.88L81.84 60.459L86.82 53.739H88.96V67.939H86.6V57.759L81.86 64.199L77.08 57.739V67.939H74.74V53.739ZM100.22 66.639C99.22 67.639 97.98 68.139 96.5 68.139C95.02 68.139 93.7733 67.639 92.76 66.639C91.76 65.6257 91.26 64.3923 91.26 62.939C91.26 61.4857 91.76 60.259 92.76 59.259C93.7733 58.2457 95.02 57.739 96.5 57.739C97.98 57.739 99.22 58.2457 100.22 59.259C101.233 60.259 101.74 61.4857 101.74 62.939C101.74 64.3923 101.233 65.6257 100.22 66.639ZM96.5 66.099C97.3667 66.099 98.08 65.799 98.64 65.199C99.2133 64.5857 99.5 63.8323 99.5 62.939C99.5 62.0457 99.2133 61.299 98.64 60.699C98.08 60.0857 97.3667 59.779 96.5 59.779C95.62 59.779 94.8933 60.0857 94.32 60.699C93.76 61.299 93.48 62.0457 93.48 62.939C93.48 63.8323 93.76 64.5857 94.32 65.199C94.8933 65.799 95.62 66.099 96.5 66.099ZM103.953 67.939V57.939H106.153V59.299C106.779 58.259 107.793 57.739 109.193 57.739C110.353 57.739 111.279 58.119 111.973 58.879C112.666 59.639 113.013 60.6523 113.013 61.919V67.939H110.813V62.279C110.813 61.479 110.626 60.859 110.253 60.419C109.879 59.9657 109.373 59.739 108.733 59.739C107.973 59.739 107.353 60.0257 106.873 60.599C106.393 61.1723 106.153 61.979 106.153 63.019V67.939H103.953ZM120.05 68.039C119.037 68.039 118.21 67.759 117.57 67.199C116.944 66.6257 116.63 65.799 116.63 64.719V59.899H114.55V57.939H116.63V55.159H118.83V57.939H121.69V59.899H118.83V64.359C118.83 64.9723 118.964 65.4123 119.23 65.679C119.497 65.9323 119.924 66.059 120.51 66.059C120.99 66.059 121.384 65.9923 121.69 65.859V67.819C121.21 67.9657 120.664 68.039 120.05 68.039ZM125.977 67.939H123.777V52.939H125.977V59.299C126.604 58.259 127.617 57.739 129.017 57.739C130.177 57.739 131.104 58.119 131.797 58.879C132.49 59.639 132.837 60.6523 132.837 61.919V67.939H130.637V62.279C130.637 61.479 130.45 60.859 130.077 60.419C129.704 59.9657 129.197 59.739 128.557 59.739C127.797 59.739 127.177 60.0257 126.697 60.599C126.217 61.1723 125.977 61.979 125.977 63.019V67.939ZM135.652 67.939V52.939H137.852V67.939H135.652ZM144.008 72.119H141.588L143.728 67.399L139.428 57.939H141.848L144.908 65.019L147.988 57.939H150.428L144.008 72.119ZM158.418 72.119H156.218V57.939H158.418V59.279C158.725 58.8523 159.165 58.4923 159.738 58.199C160.325 57.8923 160.958 57.739 161.638 57.739C162.998 57.739 164.138 58.2457 165.058 59.259C165.992 60.2723 166.458 61.499 166.458 62.939C166.458 64.379 165.992 65.6057 165.058 66.619C164.138 67.6323 162.998 68.139 161.638 68.139C160.958 68.139 160.325 67.9923 159.738 67.699C159.165 67.3923 158.725 67.0257 158.418 66.599V72.119ZM161.238 66.139C162.105 66.139 162.818 65.8323 163.378 65.219C163.938 64.6057 164.218 63.8457 164.218 62.939C164.218 62.0323 163.938 61.2723 163.378 60.659C162.818 60.0457 162.105 59.739 161.238 59.739C160.358 59.739 159.638 60.0457 159.078 60.659C158.518 61.2723 158.238 62.0323 158.238 62.939C158.238 63.8457 158.518 64.6057 159.078 65.219C159.638 65.8323 160.358 66.139 161.238 66.139ZM172.799 68.139C171.439 68.139 170.292 67.6323 169.359 66.619C168.439 65.6057 167.979 64.379 167.979 62.939C167.979 61.499 168.439 60.2723 169.359 59.259C170.292 58.2457 171.439 57.739 172.799 57.739C173.479 57.739 174.105 57.8923 174.679 58.199C175.252 58.4923 175.692 58.8523 175.999 59.279V57.939H178.199V67.939H175.999V66.599C175.692 67.0257 175.252 67.3923 174.679 67.699C174.105 67.9923 173.479 68.139 172.799 68.139ZM171.059 65.219C171.619 65.8323 172.332 66.139 173.199 66.139C174.065 66.139 174.779 65.8323 175.339 65.219C175.899 64.6057 176.179 63.8457 176.179 62.939C176.179 62.0323 175.899 61.2723 175.339 60.659C174.779 60.0457 174.065 59.739 173.199 59.739C172.332 59.739 171.619 60.0457 171.059 60.659C170.499 61.2723 170.219 62.0323 170.219 62.939C170.219 63.8457 170.499 64.6057 171.059 65.219ZM184.379 72.119H181.959L184.099 67.399L179.799 57.939H182.219L185.279 65.019L188.359 57.939H190.799L184.379 72.119ZM200.318 66.639C199.318 67.639 198.078 68.139 196.598 68.139C195.118 68.139 193.871 67.639 192.858 66.639C191.858 65.6257 191.358 64.3923 191.358 62.939C191.358 61.4857 191.858 60.259 192.858 59.259C193.871 58.2457 195.118 57.739 196.598 57.739C198.078 57.739 199.318 58.2457 200.318 59.259C201.331 60.259 201.838 61.4857 201.838 62.939C201.838 64.3923 201.331 65.6257 200.318 66.639ZM196.598 66.099C197.464 66.099 198.178 65.799 198.738 65.199C199.311 64.5857 199.598 63.8323 199.598 62.939C199.598 62.0457 199.311 61.299 198.738 60.699C198.178 60.0857 197.464 59.779 196.598 59.779C195.718 59.779 194.991 60.0857 194.418 60.699C193.858 61.299 193.578 62.0457 193.578 62.939C193.578 63.8323 193.858 64.5857 194.418 65.199C194.991 65.799 195.718 66.099 196.598 66.099ZM207.63 68.139C206.484 68.139 205.577 67.759 204.91 66.999C204.244 66.2257 203.91 65.199 203.91 63.919V57.939H206.11V63.559C206.11 64.359 206.284 64.9923 206.63 65.459C206.977 65.9123 207.47 66.139 208.11 66.139C208.857 66.139 209.45 65.859 209.89 65.299C210.33 64.7257 210.55 63.9123 210.55 62.859V57.939H212.75V67.939H210.55V66.579C209.964 67.619 208.99 68.139 207.63 68.139ZM220.05 68.039C219.037 68.039 218.21 67.759 217.57 67.199C216.944 66.6257 216.63 65.799 216.63 64.719V59.899H214.55V57.939H216.63V55.159H218.83V57.939H221.69V59.899H218.83V64.359C218.83 64.9723 218.964 65.4123 219.23 65.679C219.497 65.9323 219.924 66.059 220.51 66.059C220.99 66.059 221.384 65.9923 221.69 65.859V67.819C221.21 67.9657 220.664 68.039 220.05 68.039Z" fill="black"/>
<path d="M95.103 110.939H91.228L79.944 96.586V110.939H75.449V88.929H79.324L90.608 103.282V88.929H95.103V110.939ZM109.053 110.939V105.917H98.1098V102.476L109.518 88.929H113.3V102.011H116.183V105.917H113.3V110.939H109.053ZM103.318 102.011H109.053V95.222L103.318 102.011ZM127.086 111.28C124.668 111.28 122.694 110.464 121.165 108.831C119.636 107.198 118.871 105.111 118.871 102.569V97.237C118.871 94.7157 119.636 92.6387 121.165 91.006C122.694 89.3733 124.668 88.557 127.086 88.557C129.483 88.557 131.447 89.3733 132.976 91.006C134.505 92.6387 135.27 94.7157 135.27 97.237V102.569C135.27 105.111 134.505 107.198 132.976 108.831C131.447 110.464 129.483 111.28 127.086 111.28ZM124.203 105.886C124.926 106.692 125.887 107.095 127.086 107.095C128.285 107.095 129.235 106.692 129.938 105.886C130.661 105.08 131.023 103.974 131.023 102.569V97.237C131.023 95.8317 130.661 94.7363 129.938 93.951C129.235 93.145 128.285 92.742 127.086 92.742C125.887 92.742 124.926 93.145 124.203 93.951C123.48 94.7363 123.118 95.8317 123.118 97.237V102.569C123.118 103.974 123.48 105.08 124.203 105.886ZM146.643 111.28C144.225 111.28 142.251 110.464 140.722 108.831C139.192 107.198 138.428 105.111 138.428 102.569V97.237C138.428 94.7157 139.192 92.6387 140.722 91.006C142.251 89.3733 144.225 88.557 146.643 88.557C149.04 88.557 151.003 89.3733 152.533 91.006C154.062 92.6387 154.827 94.7157 154.827 97.237V102.569C154.827 105.111 154.062 107.198 152.533 108.831C151.003 110.464 149.04 111.28 146.643 111.28ZM143.76 105.886C144.483 106.692 145.444 107.095 146.643 107.095C147.841 107.095 148.792 106.692 149.495 105.886C150.218 105.08 150.58 103.974 150.58 102.569V97.237C150.58 95.8317 150.218 94.7363 149.495 93.951C148.792 93.145 147.841 92.742 146.643 92.742C145.444 92.742 144.483 93.145 143.76 93.951C143.036 94.7363 142.675 95.8317 142.675 97.237V102.569C142.675 103.974 143.036 105.08 143.76 105.886ZM163.133 110.071L159.661 115.651H157.15L159.413 110.939C158.896 110.732 158.462 110.371 158.111 109.854C157.759 109.337 157.584 108.748 157.584 108.087C157.584 107.219 157.883 106.485 158.483 105.886C159.082 105.287 159.816 104.987 160.684 104.987C161.552 104.987 162.275 105.287 162.854 105.886C163.453 106.485 163.753 107.219 163.753 108.087C163.753 108.728 163.546 109.389 163.133 110.071ZM174.331 111.28C172.119 111.28 170.218 110.619 168.627 109.296C167.056 107.953 166.229 106.124 166.147 103.809H170.363C170.466 104.863 170.869 105.679 171.572 106.258C172.295 106.816 173.215 107.095 174.331 107.095C175.323 107.095 176.118 106.847 176.718 106.351C177.338 105.855 177.658 105.183 177.679 104.336C177.679 103.406 177.358 102.683 176.718 102.166C176.077 101.649 175.199 101.391 174.083 101.391H172.223V97.919H173.897C174.909 97.919 175.684 97.6813 176.222 97.206C176.759 96.7307 177.038 96.09 177.059 95.284C177.079 94.54 176.811 93.9303 176.253 93.455C175.715 92.9797 175.033 92.742 174.207 92.742C173.215 92.742 172.398 93.0313 171.758 93.61C171.117 94.1887 170.807 94.9327 170.828 95.842H166.55C166.55 93.6513 167.314 91.8947 168.844 90.572C170.373 89.2287 172.161 88.557 174.207 88.557C176.397 88.557 178.133 89.177 179.415 90.417C180.696 91.6363 181.337 93.145 181.337 94.943C181.337 95.9557 181.099 96.8857 180.624 97.733C180.148 98.5597 179.57 99.2107 178.888 99.686C179.776 100.099 180.51 100.74 181.089 101.608C181.667 102.476 181.957 103.499 181.957 104.677C181.957 106.62 181.254 108.211 179.849 109.451C178.443 110.67 176.604 111.28 174.331 111.28ZM192.555 111.28C190.344 111.28 188.442 110.619 186.851 109.296C185.28 107.953 184.454 106.124 184.371 103.809H188.587C188.69 104.863 189.093 105.679 189.796 106.258C190.519 106.816 191.439 107.095 192.555 107.095C193.547 107.095 194.343 106.847 194.942 106.351C195.562 105.855 195.882 105.183 195.903 104.336C195.903 103.406 195.583 102.683 194.942 102.166C194.301 101.649 193.423 101.391 192.307 101.391H190.447V97.919H192.121C193.134 97.919 193.909 97.6813 194.446 97.206C194.983 96.7307 195.262 96.09 195.283 95.284C195.304 94.54 195.035 93.9303 194.477 93.455C193.94 92.9797 193.258 92.742 192.431 92.742C191.439 92.742 190.623 93.0313 189.982 93.61C189.341 94.1887 189.031 94.9327 189.052 95.842H184.774C184.774 93.6513 185.539 91.8947 187.068 90.572C188.597 89.2287 190.385 88.557 192.431 88.557C194.622 88.557 196.358 89.177 197.639 90.417C198.92 91.6363 199.561 93.145 199.561 94.943C199.561 95.9557 199.323 96.8857 198.848 97.733C198.373 98.5597 197.794 99.2107 197.112 99.686C198.001 100.099 198.734 100.74 199.313 101.608C199.892 102.476 200.181 103.499 200.181 104.677C200.181 106.62 199.478 108.211 198.073 109.451C196.668 110.67 194.828 111.28 192.555 111.28ZM211.307 111.28C208.889 111.28 206.915 110.464 205.386 108.831C203.856 107.198 203.092 105.111 203.092 102.569V97.237C203.092 94.7157 203.856 92.6387 205.386 91.006C206.915 89.3733 208.889 88.557 211.307 88.557C213.704 88.557 215.667 89.3733 217.197 91.006C218.726 92.6387 219.491 94.7157 219.491 97.237V102.569C219.491 105.111 218.726 107.198 217.197 108.831C215.667 110.464 213.704 111.28 211.307 111.28ZM208.424 105.886C209.147 106.692 210.108 107.095 211.307 107.095C212.505 107.095 213.456 106.692 214.159 105.886C214.882 105.08 215.244 103.974 215.244 102.569V97.237C215.244 95.8317 214.882 94.7363 214.159 93.951C213.456 93.145 212.505 92.742 211.307 92.742C210.108 92.742 209.147 93.145 208.424 93.951C207.7 94.7363 207.339 95.8317 207.339 97.237V102.569C207.339 103.974 207.7 105.08 208.424 105.886Z" fill="black"/>
<path d="M74.392 187.939V176.579H78.312C79.304 176.579 80.1147 176.883 80.744 177.491C81.384 178.099 81.704 178.84 81.704 179.715C81.704 180.654 81.352 181.384 80.648 181.907C81.864 182.408 82.472 183.31 82.472 184.611C82.472 185.56 82.1253 186.355 81.432 186.995C80.7493 187.624 79.8747 187.939 78.808 187.939H74.392ZM76.264 186.227H78.76C79.3573 186.227 79.8213 186.078 80.152 185.779C80.4827 185.48 80.648 185.086 80.648 184.595C80.648 184.115 80.4827 183.726 80.152 183.427C79.8213 183.118 79.3573 182.963 78.76 182.963H76.264V186.227ZM76.264 181.363H78.216C78.7173 181.363 79.1173 181.219 79.416 180.931C79.7147 180.643 79.864 180.275 79.864 179.827C79.864 179.4 79.7147 179.038 79.416 178.739C79.1173 178.44 78.7173 178.291 78.216 178.291H76.264V181.363ZM85.1109 178.195C84.7909 178.195 84.5135 178.083 84.2789 177.859C84.0442 177.624 83.9269 177.342 83.9269 177.011C83.9269 176.691 84.0442 176.419 84.2789 176.195C84.5135 175.96 84.7909 175.843 85.1109 175.843C85.4415 175.843 85.7189 175.96 85.9429 176.195C86.1669 176.419 86.2789 176.691 86.2789 177.011C86.2789 177.342 86.1669 177.624 85.9429 177.859C85.7189 178.083 85.4415 178.195 85.1109 178.195ZM84.2309 187.939V179.939H85.9909V187.939H84.2309ZM91.8279 188.019C91.0172 188.019 90.3559 187.795 89.8439 187.347C89.3425 186.888 89.0919 186.227 89.0919 185.363V181.507H87.4279V179.939H89.0919V177.715H90.8519V179.939H93.1399V181.507H90.8519V185.075C90.8519 185.566 90.9585 185.918 91.1719 186.131C91.3852 186.334 91.7265 186.435 92.1959 186.435C92.5799 186.435 92.8945 186.382 93.1399 186.275V187.843C92.7559 187.96 92.3185 188.019 91.8279 188.019ZM98.3156 188.099C97.1103 188.099 96.1076 187.699 95.3076 186.899C94.5183 186.088 94.1236 185.102 94.1236 183.939C94.1236 182.776 94.5183 181.795 95.3076 180.995C96.1076 180.184 97.1103 179.779 98.3156 179.779C99.3503 179.779 100.23 180.067 100.956 180.643C101.692 181.219 102.166 181.96 102.38 182.867H100.524C100.364 182.419 100.086 182.062 99.6916 181.795C99.3076 181.518 98.849 181.379 98.3156 181.379C97.6116 181.379 97.0356 181.619 96.5876 182.099C96.1396 182.579 95.9156 183.192 95.9156 183.939C95.9156 184.686 96.1396 185.299 96.5876 185.779C97.0356 186.259 97.6116 186.499 98.3156 186.499C98.849 186.499 99.3076 186.366 99.6916 186.099C100.086 185.822 100.364 185.459 100.524 185.011H102.38C102.166 185.918 101.692 186.659 100.956 187.235C100.23 187.811 99.3503 188.099 98.3156 188.099ZM110.635 186.899C109.835 187.699 108.843 188.099 107.659 188.099C106.475 188.099 105.478 187.699 104.667 186.899C103.867 186.088 103.467 185.102 103.467 183.939C103.467 182.776 103.867 181.795 104.667 180.995C105.478 180.184 106.475 179.779 107.659 179.779C108.843 179.779 109.835 180.184 110.635 180.995C111.446 181.795 111.851 182.776 111.851 183.939C111.851 185.102 111.446 186.088 110.635 186.899ZM107.659 186.467C108.353 186.467 108.923 186.227 109.371 185.747C109.83 185.256 110.059 184.654 110.059 183.939C110.059 183.224 109.83 182.627 109.371 182.147C108.923 181.656 108.353 181.411 107.659 181.411C106.955 181.411 106.374 181.656 105.915 182.147C105.467 182.627 105.243 183.224 105.243 183.939C105.243 184.654 105.467 185.256 105.915 185.747C106.374 186.227 106.955 186.467 107.659 186.467ZM114.502 178.195C114.182 178.195 113.904 178.083 113.67 177.859C113.435 177.624 113.318 177.342 113.318 177.011C113.318 176.691 113.435 176.419 113.67 176.195C113.904 175.96 114.182 175.843 114.502 175.843C114.832 175.843 115.11 175.96 115.334 176.195C115.558 176.419 115.67 176.691 115.67 177.011C115.67 177.342 115.558 177.624 115.334 177.859C115.11 178.083 114.832 178.195 114.502 178.195ZM113.622 187.939V179.939H115.382V187.939H113.622ZM117.747 187.939V179.939H119.507V181.027C120.008 180.195 120.819 179.779 121.939 179.779C122.867 179.779 123.608 180.083 124.163 180.691C124.717 181.299 124.995 182.11 124.995 183.123V187.939H123.235V183.411C123.235 182.771 123.085 182.275 122.787 181.923C122.488 181.56 122.083 181.379 121.571 181.379C120.963 181.379 120.467 181.608 120.083 182.067C119.699 182.526 119.507 183.171 119.507 184.003V187.939H117.747Z" fill="black"/>
<path d="M364.732 184.059C363.844 184.059 363.12 183.763 362.56 183.171C362 182.571 361.72 181.799 361.72 180.855V178.479C361.72 177.535 362 176.767 362.56 176.175C363.128 175.575 363.852 175.275 364.732 175.275C365.612 175.275 366.336 175.575 366.904 176.175C367.472 176.775 367.756 177.543 367.756 178.479V180.855C367.756 181.799 367.472 182.571 366.904 183.171C366.336 183.763 365.612 184.059 364.732 184.059ZM364.732 183.051C365.324 183.051 365.804 182.855 366.172 182.463C366.54 182.071 366.724 181.535 366.724 180.855V178.479C366.724 177.799 366.54 177.263 366.172 176.871C365.804 176.479 365.324 176.283 364.732 176.283C364.148 176.283 363.672 176.479 363.304 176.871C362.936 177.263 362.752 177.799 362.752 178.479V180.855C362.752 181.535 362.936 182.071 363.304 182.463C363.672 182.855 364.148 183.051 364.732 183.051ZM370.425 183.771C370.257 183.947 370.049 184.035 369.801 184.035C369.553 184.035 369.341 183.947 369.165 183.771C368.997 183.595 368.913 183.383 368.913 183.135C368.913 182.895 369.001 182.687 369.177 182.511C369.353 182.327 369.561 182.235 369.801 182.235C370.041 182.235 370.249 182.327 370.425 182.511C370.601 182.687 370.689 182.895 370.689 183.135C370.689 183.383 370.601 183.595 370.425 183.771ZM374.857 184.059C373.969 184.059 373.245 183.763 372.685 183.171C372.125 182.571 371.845 181.799 371.845 180.855V178.479C371.845 177.535 372.125 176.767 372.685 176.175C373.253 175.575 373.977 175.275 374.857 175.275C375.737 175.275 376.461 175.575 377.029 176.175C377.597 176.775 377.881 177.543 377.881 178.479V180.855C377.881 181.799 377.597 182.571 377.029 183.171C376.461 183.763 375.737 184.059 374.857 184.059ZM374.857 183.051C375.449 183.051 375.929 182.855 376.297 182.463C376.665 182.071 376.849 181.535 376.849 180.855V178.479C376.849 177.799 376.665 177.263 376.297 176.871C375.929 176.479 375.449 176.283 374.857 176.283C374.273 176.283 373.797 176.479 373.429 176.871C373.061 177.263 372.877 177.799 372.877 178.479V180.855C372.877 181.535 373.061 182.071 373.429 182.463C373.797 182.855 374.273 183.051 374.857 183.051ZM380.342 183.939V176.439H378.698L379.538 175.419H381.374V183.939H380.342ZM386.068 184.059C385.22 184.059 384.5 183.803 383.908 183.291C383.324 182.771 383.032 182.123 383.032 181.347H384.076C384.108 181.851 384.312 182.263 384.688 182.583C385.064 182.895 385.524 183.051 386.068 183.051C386.564 183.051 386.976 182.915 387.304 182.643C387.632 182.371 387.796 181.995 387.796 181.515C387.796 181.003 387.628 180.619 387.292 180.363C386.964 180.107 386.512 179.979 385.936 179.979H385.3V179.031H385.984C386.44 179.031 386.812 178.903 387.1 178.647C387.396 178.391 387.548 178.059 387.556 177.651C387.556 177.251 387.408 176.923 387.112 176.667C386.824 176.411 386.46 176.283 386.02 176.283C385.516 176.283 385.092 176.431 384.748 176.727C384.404 177.023 384.232 177.435 384.232 177.963H383.176C383.176 177.147 383.448 176.495 383.992 176.007C384.536 175.519 385.212 175.275 386.02 175.275C386.764 175.275 387.38 175.491 387.868 175.923C388.364 176.347 388.612 176.911 388.612 177.615C388.604 178.023 388.492 178.391 388.276 178.719C388.068 179.047 387.796 179.299 387.46 179.475C387.892 179.651 388.232 179.923 388.48 180.291C388.728 180.651 388.852 181.071 388.852 181.551C388.852 182.295 388.592 182.899 388.072 183.363C387.552 183.827 386.884 184.059 386.068 184.059ZM394.205 183.939V181.623H389.669V180.795L394.337 175.419H395.237V180.651H396.413V181.623H395.237V183.939H394.205ZM391.013 180.651H394.205V176.979L391.013 180.651ZM400.894 183.939V175.419H403.69C404.458 175.419 405.074 175.639 405.538 176.079C406.002 176.519 406.234 177.051 406.234 177.675C406.234 178.459 405.93 179.039 405.322 179.415C406.306 179.775 406.798 180.455 406.798 181.455C406.798 182.175 406.534 182.771 406.006 183.243C405.486 183.707 404.798 183.939 403.942 183.939H400.894ZM402.01 182.931H403.99C404.55 182.931 404.974 182.803 405.262 182.547C405.558 182.283 405.706 181.931 405.706 181.491C405.706 181.059 405.558 180.711 405.262 180.447C404.974 180.175 404.554 180.039 404.002 180.039H402.01V182.931ZM402.01 179.079H403.69C404.138 179.079 404.49 178.959 404.746 178.719C405.01 178.471 405.142 178.151 405.142 177.759C405.142 177.383 405.01 177.067 404.746 176.811C404.482 176.555 404.13 176.427 403.69 176.427H402.01V179.079ZM409.887 183.939V176.475H407.235V175.419H413.631V176.475H410.979V183.939H409.887ZM418.374 184.083C417.118 184.083 416.066 183.663 415.218 182.823C414.378 181.975 413.958 180.927 413.958 179.679C413.958 178.431 414.378 177.387 415.218 176.547C416.066 175.699 417.118 175.275 418.374 175.275C419.398 175.275 420.282 175.563 421.026 176.139C421.778 176.715 422.254 177.411 422.454 178.227H421.278C421.078 177.675 420.714 177.223 420.186 176.871C419.666 176.511 419.062 176.331 418.374 176.331C417.43 176.331 416.642 176.655 416.01 177.303C415.386 177.943 415.074 178.735 415.074 179.679C415.074 180.623 415.386 181.419 416.01 182.067C416.642 182.707 417.43 183.027 418.374 183.027C419.062 183.027 419.666 182.851 420.186 182.499C420.714 182.139 421.078 181.683 421.278 181.131H422.454C422.254 181.947 421.778 182.643 421.026 183.219C420.282 183.795 419.398 184.083 418.374 184.083Z" fill="black"/>
<rect x="73" y="197.939" width="350" height="10" rx="5" fill="#E9EEFF"/>
<rect x="73" y="197.939" width="179.764" height="10" rx="5" fill="#5D5FEF"/>
<g filter="url(#filter0_d)">
<rect x="8" y="231.939" width="480" height="64" rx="12" fill="white"/>
</g>
<path d="M375.388 258.939H374.428L369.244 252.303V258.939H368.128V250.419H369.1L374.284 257.055V250.419H375.388V258.939ZM382.635 257.943V258.939H377.115V258.531C377.115 258.235 377.159 257.955 377.247 257.691C377.343 257.419 377.447 257.191 377.559 257.007C377.671 256.823 377.847 256.619 378.087 256.395C378.327 256.163 378.515 255.995 378.651 255.891C378.787 255.779 379.015 255.611 379.335 255.387C379.655 255.155 379.867 255.003 379.971 254.931C380.539 254.515 380.931 254.167 381.147 253.887C381.371 253.599 381.483 253.223 381.483 252.759C381.483 252.311 381.339 251.955 381.051 251.691C380.763 251.419 380.387 251.283 379.923 251.283C379.435 251.283 379.019 251.431 378.675 251.727C378.331 252.023 378.159 252.435 378.159 252.963H377.103C377.103 252.163 377.367 251.515 377.895 251.019C378.431 250.523 379.103 250.275 379.911 250.275C380.663 250.275 381.287 250.491 381.783 250.923C382.287 251.355 382.539 251.971 382.539 252.771C382.539 253.379 382.391 253.899 382.095 254.331C381.799 254.755 381.291 255.227 380.571 255.747C380.435 255.843 380.243 255.979 379.995 256.155C379.747 256.323 379.555 256.459 379.419 256.563C379.283 256.667 379.131 256.795 378.963 256.947C378.803 257.091 378.675 257.247 378.579 257.415C378.491 257.575 378.427 257.751 378.387 257.943H382.635ZM386.783 259.059C385.935 259.059 385.215 258.803 384.623 258.291C384.039 257.771 383.747 257.123 383.747 256.347H384.791C384.823 256.851 385.027 257.263 385.403 257.583C385.779 257.895 386.239 258.051 386.783 258.051C387.279 258.051 387.691 257.915 388.019 257.643C388.347 257.371 388.511 256.995 388.511 256.515C388.511 256.003 388.343 255.619 388.007 255.363C387.679 255.107 387.227 254.979 386.651 254.979H386.015V254.031H386.699C387.155 254.031 387.527 253.903 387.815 253.647C388.111 253.391 388.263 253.059 388.271 252.651C388.271 252.251 388.123 251.923 387.827 251.667C387.539 251.411 387.175 251.283 386.735 251.283C386.231 251.283 385.807 251.431 385.463 251.727C385.119 252.023 384.947 252.435 384.947 252.963H383.891C383.891 252.147 384.163 251.495 384.707 251.007C385.251 250.519 385.927 250.275 386.735 250.275C387.479 250.275 388.095 250.491 388.583 250.923C389.079 251.347 389.327 251.911 389.327 252.615C389.319 253.023 389.207 253.391 388.991 253.719C388.783 254.047 388.511 254.299 388.175 254.475C388.607 254.651 388.947 254.923 389.195 255.291C389.443 255.651 389.567 256.071 389.567 256.551C389.567 257.295 389.307 257.899 388.787 258.363C388.267 258.827 387.599 259.059 386.783 259.059ZM393.912 259.059C393.024 259.059 392.3 258.763 391.74 258.171C391.18 257.571 390.9 256.799 390.9 255.855V253.479C390.9 252.535 391.18 251.767 391.74 251.175C392.308 250.575 393.032 250.275 393.912 250.275C394.792 250.275 395.516 250.575 396.084 251.175C396.652 251.775 396.936 252.543 396.936 253.479V255.855C396.936 256.799 396.652 257.571 396.084 258.171C395.516 258.763 394.792 259.059 393.912 259.059ZM393.912 258.051C394.504 258.051 394.984 257.855 395.352 257.463C395.72 257.071 395.904 256.535 395.904 255.855V253.479C395.904 252.799 395.72 252.263 395.352 251.871C394.984 251.479 394.504 251.283 393.912 251.283C393.328 251.283 392.852 251.479 392.484 251.871C392.116 252.263 391.932 252.799 391.932 253.479V255.855C391.932 256.535 392.116 257.071 392.484 257.463C392.852 257.855 393.328 258.051 393.912 258.051ZM399.725 258.675L398.489 260.655H397.805L398.609 258.939C398.281 258.779 398.117 258.511 398.117 258.135C398.117 257.895 398.205 257.687 398.381 257.511C398.557 257.327 398.765 257.235 399.005 257.235C399.245 257.235 399.453 257.327 399.629 257.511C399.805 257.687 399.893 257.895 399.893 258.135C399.893 258.311 399.837 258.491 399.725 258.675ZM404.084 259.059C403.196 259.059 402.472 258.763 401.912 258.171C401.352 257.571 401.072 256.799 401.072 255.855V253.479C401.072 252.535 401.352 251.767 401.912 251.175C402.48 250.575 403.204 250.275 404.084 250.275C404.964 250.275 405.688 250.575 406.256 251.175C406.824 251.775 407.108 252.543 407.108 253.479V255.855C407.108 256.799 406.824 257.571 406.256 258.171C405.688 258.763 404.964 259.059 404.084 259.059ZM404.084 258.051C404.676 258.051 405.156 257.855 405.524 257.463C405.892 257.071 406.076 256.535 406.076 255.855V253.479C406.076 252.799 405.892 252.263 405.524 251.871C405.156 251.479 404.676 251.283 404.084 251.283C403.5 251.283 403.024 251.479 402.656 251.871C402.288 252.263 402.104 252.799 402.104 253.479V255.855C402.104 256.535 402.288 257.071 402.656 257.463C403.024 257.855 403.5 258.051 404.084 258.051ZM411.56 259.059C410.672 259.059 409.948 258.763 409.388 258.171C408.828 257.571 408.548 256.799 408.548 255.855V253.479C408.548 252.535 408.828 251.767 409.388 251.175C409.956 250.575 410.68 250.275 411.56 250.275C412.44 250.275 413.164 250.575 413.732 251.175C414.3 251.775 414.584 252.543 414.584 253.479V255.855C414.584 256.799 414.3 257.571 413.732 258.171C413.164 258.763 412.44 259.059 411.56 259.059ZM411.56 258.051C412.152 258.051 412.632 257.855 413 257.463C413.368 257.071 413.552 256.535 413.552 255.855V253.479C413.552 252.799 413.368 252.263 413 251.871C412.632 251.479 412.152 251.283 411.56 251.283C410.976 251.283 410.5 251.479 410.132 251.871C409.764 252.263 409.58 252.799 409.58 253.479V255.855C409.58 256.535 409.764 257.071 410.132 257.463C410.5 257.855 410.976 258.051 411.56 258.051ZM419.037 259.059C418.149 259.059 417.425 258.763 416.865 258.171C416.305 257.571 416.025 256.799 416.025 255.855V253.479C416.025 252.535 416.305 251.767 416.865 251.175C417.433 250.575 418.157 250.275 419.037 250.275C419.917 250.275 420.641 250.575 421.209 251.175C421.777 251.775 422.061 252.543 422.061 253.479V255.855C422.061 256.799 421.777 257.571 421.209 258.171C420.641 258.763 419.917 259.059 419.037 259.059ZM419.037 258.051C419.629 258.051 420.109 257.855 420.477 257.463C420.845 257.071 421.029 256.535 421.029 255.855V253.479C421.029 252.799 420.845 252.263 420.477 251.871C420.109 251.479 419.629 251.283 419.037 251.283C418.453 251.283 417.977 251.479 417.609 251.871C417.241 252.263 417.057 252.799 417.057 253.479V255.855C417.057 256.535 417.241 257.071 417.609 257.463C417.977 257.855 418.453 258.051 419.037 258.051Z" fill="black"/>
<path d="M84.296 260.939H82.664L76.264 252.763V260.939H74.392V249.579H76.024L82.408 257.739V249.579H84.296V260.939ZM89.9953 261.099C88.9073 261.099 87.9899 260.694 87.2433 259.883C86.5073 259.072 86.1393 258.091 86.1393 256.939C86.1393 255.787 86.5073 254.806 87.2433 253.995C87.9899 253.184 88.9073 252.779 89.9953 252.779C90.5393 252.779 91.0406 252.902 91.4993 253.147C91.9579 253.382 92.3099 253.67 92.5553 254.011V252.939H94.3153V260.939H92.5553V259.867C92.3099 260.208 91.9579 260.502 91.4993 260.747C91.0406 260.982 90.5393 261.099 89.9953 261.099ZM88.6033 258.763C89.0513 259.254 89.6219 259.499 90.3153 259.499C91.0086 259.499 91.5793 259.254 92.0273 258.763C92.4753 258.272 92.6993 257.664 92.6993 256.939C92.6993 256.214 92.4753 255.606 92.0273 255.115C91.5793 254.624 91.0086 254.379 90.3153 254.379C89.6219 254.379 89.0513 254.624 88.6033 255.115C88.1553 255.606 87.9313 256.214 87.9313 256.939C87.9313 257.664 88.1553 258.272 88.6033 258.763ZM97.5796 251.195C97.2596 251.195 96.9823 251.083 96.7476 250.859C96.513 250.624 96.3956 250.342 96.3956 250.011C96.3956 249.691 96.513 249.419 96.7476 249.195C96.9823 248.96 97.2596 248.843 97.5796 248.843C97.9103 248.843 98.1876 248.96 98.4116 249.195C98.6356 249.419 98.7476 249.691 98.7476 250.011C98.7476 250.342 98.6356 250.624 98.4116 250.859C98.1876 251.083 97.9103 251.195 97.5796 251.195ZM96.6996 260.939V252.939H98.4596V260.939H96.6996ZM100.825 260.939V252.939H102.585V254.363C102.734 253.915 103.006 253.552 103.401 253.275C103.806 252.998 104.238 252.859 104.697 252.859C104.974 252.859 105.203 252.88 105.385 252.923V254.731C105.129 254.635 104.835 254.587 104.505 254.587C103.971 254.587 103.518 254.806 103.145 255.243C102.771 255.67 102.585 256.267 102.585 257.035V260.939H100.825ZM109.917 261.099C108.829 261.099 107.912 260.694 107.165 259.883C106.429 259.072 106.061 258.091 106.061 256.939C106.061 255.787 106.429 254.806 107.165 253.995C107.912 253.184 108.829 252.779 109.917 252.779C110.461 252.779 110.962 252.902 111.421 253.147C111.88 253.382 112.232 253.67 112.477 254.011V252.939H114.237V260.939H112.477V259.867C112.232 260.208 111.88 260.502 111.421 260.747C110.962 260.982 110.461 261.099 109.917 261.099ZM108.525 258.763C108.973 259.254 109.544 259.499 110.237 259.499C110.93 259.499 111.501 259.254 111.949 258.763C112.397 258.272 112.621 257.664 112.621 256.939C112.621 256.214 112.397 255.606 111.949 255.115C111.501 254.624 110.93 254.379 110.237 254.379C109.544 254.379 108.973 254.624 108.525 255.115C108.077 255.606 107.853 256.214 107.853 256.939C107.853 257.664 108.077 258.272 108.525 258.763Z" fill="black"/>
<rect x="73" y="270.939" width="350" height="10" rx="5" fill="#E9EEFF"/>
<rect x="73" y="270.939" width="266.27" height="10" rx="5" fill="#5D5FEF"/>
<path d="M74.392 333.939V322.579H81.224V324.371H76.264V327.283H80.264V329.075H76.264V332.147H81.224V333.939H74.392ZM86.406 334.019C85.5953 334.019 84.934 333.795 84.422 333.347C83.9207 332.888 83.67 332.227 83.67 331.363V327.507H82.006V325.939H83.67V323.715H85.43V325.939H87.718V327.507H85.43V331.075C85.43 331.566 85.5367 331.918 85.75 332.131C85.9633 332.334 86.3047 332.435 86.774 332.435C87.158 332.435 87.4727 332.382 87.718 332.275V333.843C87.334 333.96 86.8967 334.019 86.406 334.019ZM91.1471 333.939H89.3871V321.939H91.1471V327.027C91.6485 326.195 92.4591 325.779 93.5791 325.779C94.5071 325.779 95.2485 326.083 95.8031 326.691C96.3578 327.299 96.6351 328.11 96.6351 329.123V333.939H94.8751V329.411C94.8751 328.771 94.7258 328.275 94.4271 327.923C94.1285 327.56 93.7231 327.379 93.2111 327.379C92.6031 327.379 92.1071 327.608 91.7231 328.067C91.3391 328.526 91.1471 329.171 91.1471 330.003V333.939ZM102.423 334.099C101.228 334.099 100.247 333.71 99.4791 332.931C98.7111 332.142 98.3271 331.144 98.3271 329.939C98.3271 328.734 98.7058 327.742 99.4631 326.963C100.22 326.174 101.212 325.779 102.439 325.779C103.676 325.779 104.674 326.211 105.431 327.075C106.188 327.928 106.524 329.027 106.439 330.371H100.071C100.092 330.99 100.327 331.507 100.775 331.923C101.223 332.339 101.794 332.547 102.487 332.547C103.468 332.547 104.14 332.174 104.503 331.427H106.343C106.098 332.206 105.628 332.846 104.935 333.347C104.242 333.848 103.404 334.099 102.423 334.099ZM102.391 327.251C101.815 327.251 101.319 327.416 100.903 327.747C100.498 328.067 100.236 328.526 100.119 329.123H104.551C104.423 328.504 104.162 328.04 103.767 327.731C103.372 327.411 102.914 327.251 102.391 327.251ZM108.247 333.939V325.939H110.007V327.363C110.156 326.915 110.428 326.552 110.823 326.275C111.228 325.998 111.66 325.859 112.119 325.859C112.396 325.859 112.625 325.88 112.807 325.923V327.731C112.551 327.635 112.257 327.587 111.927 327.587C111.393 327.587 110.94 327.806 110.567 328.243C110.193 328.67 110.007 329.267 110.007 330.035V333.939H108.247ZM117.579 334.099C116.385 334.099 115.403 333.71 114.635 332.931C113.867 332.142 113.483 331.144 113.483 329.939C113.483 328.734 113.862 327.742 114.619 326.963C115.377 326.174 116.369 325.779 117.595 325.779C118.833 325.779 119.83 326.211 120.587 327.075C121.345 327.928 121.681 329.027 121.595 330.371H115.227C115.249 330.99 115.483 331.507 115.931 331.923C116.379 332.339 116.95 332.547 117.643 332.547C118.625 332.547 119.297 332.174 119.659 331.427H121.499C121.254 332.206 120.785 332.846 120.091 333.347C119.398 333.848 118.561 334.099 117.579 334.099ZM117.547 327.251C116.971 327.251 116.475 327.416 116.059 327.747C115.654 328.067 115.393 328.526 115.275 329.123H119.707C119.579 328.504 119.318 328.04 118.923 327.731C118.529 327.411 118.07 327.251 117.547 327.251ZM126.267 334.099C125.349 334.099 124.624 333.795 124.091 333.187C123.557 332.568 123.291 331.747 123.291 330.723V325.939H125.051V330.435C125.051 331.075 125.189 331.582 125.467 331.955C125.744 332.318 126.139 332.499 126.651 332.499C127.248 332.499 127.723 332.275 128.075 331.827C128.427 331.368 128.603 330.718 128.603 329.875V325.939H130.363V333.939H128.603V332.851C128.133 333.683 127.355 334.099 126.267 334.099ZM142.923 333.939V329.443C142.923 328.792 142.8 328.286 142.555 327.923C142.32 327.56 141.968 327.379 141.499 327.379C140.934 327.379 140.48 327.598 140.139 328.035C139.798 328.472 139.616 329.086 139.595 329.875V333.939H137.835V329.443C137.835 328.792 137.712 328.286 137.467 327.923C137.232 327.56 136.88 327.379 136.411 327.379C135.824 327.379 135.355 327.608 135.003 328.067C134.662 328.526 134.491 329.171 134.491 330.003V333.939H132.731V325.939H134.491V327.027C134.982 326.195 135.739 325.779 136.763 325.779C137.968 325.779 138.795 326.307 139.243 327.363C139.467 326.862 139.808 326.472 140.267 326.195C140.736 325.918 141.248 325.779 141.803 325.779C142.699 325.779 143.403 326.083 143.915 326.691C144.427 327.299 144.683 328.12 144.683 329.155V333.939H142.923Z" fill="black"/>
<path d="M375.732 330.059C374.844 330.059 374.12 329.763 373.56 329.171C373 328.571 372.72 327.799 372.72 326.855V324.479C372.72 323.535 373 322.767 373.56 322.175C374.128 321.575 374.852 321.275 375.732 321.275C376.612 321.275 377.336 321.575 377.904 322.175C378.472 322.775 378.756 323.543 378.756 324.479V326.855C378.756 327.799 378.472 328.571 377.904 329.171C377.336 329.763 376.612 330.059 375.732 330.059ZM375.732 329.051C376.324 329.051 376.804 328.855 377.172 328.463C377.54 328.071 377.724 327.535 377.724 326.855V324.479C377.724 323.799 377.54 323.263 377.172 322.871C376.804 322.479 376.324 322.283 375.732 322.283C375.148 322.283 374.672 322.479 374.304 322.871C373.936 323.263 373.752 323.799 373.752 324.479V326.855C373.752 327.535 373.936 328.071 374.304 328.463C374.672 328.855 375.148 329.051 375.732 329.051ZM381.425 329.771C381.257 329.947 381.049 330.035 380.801 330.035C380.553 330.035 380.341 329.947 380.165 329.771C379.997 329.595 379.913 329.383 379.913 329.135C379.913 328.895 380.001 328.687 380.177 328.511C380.353 328.327 380.561 328.235 380.801 328.235C381.041 328.235 381.249 328.327 381.425 328.511C381.601 328.687 381.689 328.895 381.689 329.135C381.689 329.383 381.601 329.595 381.425 329.771ZM385.877 330.059C385.029 330.059 384.309 329.803 383.717 329.291C383.133 328.771 382.841 328.123 382.841 327.347H383.885C383.917 327.851 384.121 328.263 384.497 328.583C384.873 328.895 385.333 329.051 385.877 329.051C386.373 329.051 386.785 328.915 387.113 328.643C387.441 328.371 387.605 327.995 387.605 327.515C387.605 327.003 387.437 326.619 387.101 326.363C386.773 326.107 386.321 325.979 385.745 325.979H385.109V325.031H385.793C386.249 325.031 386.621 324.903 386.909 324.647C387.205 324.391 387.357 324.059 387.365 323.651C387.365 323.251 387.217 322.923 386.921 322.667C386.633 322.411 386.269 322.283 385.829 322.283C385.325 322.283 384.901 322.431 384.557 322.727C384.213 323.023 384.041 323.435 384.041 323.963H382.985C382.985 323.147 383.257 322.495 383.801 322.007C384.345 321.519 385.021 321.275 385.829 321.275C386.573 321.275 387.189 321.491 387.677 321.923C388.173 322.347 388.421 322.911 388.421 323.615C388.413 324.023 388.301 324.391 388.085 324.719C387.877 325.047 387.605 325.299 387.269 325.475C387.701 325.651 388.041 325.923 388.289 326.291C388.537 326.651 388.661 327.071 388.661 327.551C388.661 328.295 388.401 328.899 387.881 329.363C387.361 329.827 386.693 330.059 385.877 330.059ZM394.013 329.939V327.623H389.477V326.795L394.145 321.419H395.045V326.651H396.221V327.623H395.045V329.939H394.013ZM390.821 326.651H394.013V322.979L390.821 326.651ZM400.702 329.939V321.419H405.67V322.475H401.818V325.055H404.95V326.111H401.818V328.883H405.67V329.939H400.702ZM409.11 329.939V322.475H406.458V321.419H412.854V322.475H410.202V329.939H409.11ZM414.191 329.939V321.419H415.307V325.055H419.975V321.419H421.091V329.939H419.975V326.099H415.307V329.939H414.191Z" fill="black"/>
<rect x="73" y="343.939" width="350" height="10" rx="5" fill="#E9EEFF"/>
<rect x="73" y="343.939" width="51.8523" height="10" rx="5" fill="#5D5FEF"/>
<path d="M76.6 391.939V382.371H73.304V380.579H81.784V382.371H78.472V391.939H76.6ZM85.3606 392.099C84.166 392.099 83.1846 391.71 82.4166 390.931C81.6486 390.142 81.2646 389.144 81.2646 387.939C81.2646 386.734 81.6433 385.742 82.4006 384.963C83.158 384.174 84.15 383.779 85.3766 383.779C86.614 383.779 87.6113 384.211 88.3686 385.075C89.126 385.928 89.462 387.027 89.3766 388.371H83.0086C83.03 388.99 83.2646 389.507 83.7126 389.923C84.1606 390.339 84.7313 390.547 85.4246 390.547C86.406 390.547 87.078 390.174 87.4406 389.427H89.2806C89.0353 390.206 88.566 390.846 87.8726 391.347C87.1793 391.848 86.342 392.099 85.3606 392.099ZM85.3286 385.251C84.7526 385.251 84.2566 385.416 83.8406 385.747C83.4353 386.067 83.174 386.526 83.0566 387.123H87.4886C87.3606 386.504 87.0993 386.04 86.7046 385.731C86.31 385.411 85.8513 385.251 85.3286 385.251ZM94.5154 392.019C93.7047 392.019 93.0434 391.795 92.5314 391.347C92.03 390.888 91.7794 390.227 91.7794 389.363V385.507H90.1154V383.939H91.7794V381.715H93.5394V383.939H95.8274V385.507H93.5394V389.075C93.5394 389.566 93.646 389.918 93.8594 390.131C94.0727 390.334 94.414 390.435 94.8834 390.435C95.2674 390.435 95.582 390.382 95.8274 390.275V391.843C95.4434 391.96 95.006 392.019 94.5154 392.019ZM99.2565 391.939H97.4965V379.939H99.2565V385.027C99.7578 384.195 100.569 383.779 101.689 383.779C102.617 383.779 103.358 384.083 103.913 384.691C104.467 385.299 104.745 386.11 104.745 387.123V391.939H102.985V387.411C102.985 386.771 102.835 386.275 102.537 385.923C102.238 385.56 101.833 385.379 101.321 385.379C100.713 385.379 100.217 385.608 99.8325 386.067C99.4485 386.526 99.2565 387.171 99.2565 388.003V391.939ZM110.533 392.099C109.338 392.099 108.357 391.71 107.589 390.931C106.821 390.142 106.437 389.144 106.437 387.939C106.437 386.734 106.815 385.742 107.573 384.963C108.33 384.174 109.322 383.779 110.549 383.779C111.786 383.779 112.783 384.211 113.541 385.075C114.298 385.928 114.634 387.027 114.549 388.371H108.181C108.202 388.99 108.437 389.507 108.885 389.923C109.333 390.339 109.903 390.547 110.597 390.547C111.578 390.547 112.25 390.174 112.613 389.427H114.453C114.207 390.206 113.738 390.846 113.045 391.347C112.351 391.848 111.514 392.099 110.533 392.099ZM110.501 385.251C109.925 385.251 109.429 385.416 109.013 385.747C108.607 386.067 108.346 386.526 108.229 387.123H112.661C112.533 386.504 112.271 386.04 111.877 385.731C111.482 385.411 111.023 385.251 110.501 385.251ZM116.356 391.939V383.939H118.116V385.363C118.265 384.915 118.537 384.552 118.932 384.275C119.337 383.998 119.769 383.859 120.228 383.859C120.505 383.859 120.735 383.88 120.916 383.923V385.731C120.66 385.635 120.367 385.587 120.036 385.587C119.503 385.587 119.049 385.806 118.676 386.243C118.303 386.67 118.116 387.267 118.116 388.035V391.939H116.356Z" fill="black"/>
<path d="M378.564 388.059C377.716 388.059 376.996 387.803 376.404 387.291C375.82 386.771 375.528 386.123 375.528 385.347H376.572C376.604 385.851 376.808 386.263 377.184 386.583C377.56 386.895 378.02 387.051 378.564 387.051C379.06 387.051 379.472 386.915 379.8 386.643C380.128 386.371 380.292 385.995 380.292 385.515C380.292 385.003 380.124 384.619 379.788 384.363C379.46 384.107 379.008 383.979 378.432 383.979H377.796V383.031H378.48C378.936 383.031 379.308 382.903 379.596 382.647C379.892 382.391 380.044 382.059 380.052 381.651C380.052 381.251 379.904 380.923 379.608 380.667C379.32 380.411 378.956 380.283 378.516 380.283C378.012 380.283 377.588 380.431 377.244 380.727C376.9 381.023 376.728 381.435 376.728 381.963H375.672C375.672 381.147 375.944 380.495 376.488 380.007C377.032 379.519 377.708 379.275 378.516 379.275C379.26 379.275 379.876 379.491 380.364 379.923C380.86 380.347 381.108 380.911 381.108 381.615C381.1 382.023 380.988 382.391 380.772 382.719C380.564 383.047 380.292 383.299 379.956 383.475C380.388 383.651 380.728 383.923 380.976 384.291C381.224 384.651 381.348 385.071 381.348 385.551C381.348 386.295 381.088 386.899 380.568 387.363C380.048 387.827 379.38 388.059 378.564 388.059ZM386.701 387.939V385.623H382.165V384.795L386.833 379.419H387.733V384.651H388.909V385.623H387.733V387.939H386.701ZM383.509 384.651H386.701V380.979L383.509 384.651ZM399.03 387.147C398.414 387.771 397.61 388.083 396.618 388.083C395.626 388.083 394.822 387.771 394.206 387.147C393.59 386.515 393.282 385.675 393.282 384.627V379.419H394.398V384.651C394.398 385.411 394.598 385.999 394.998 386.415C395.398 386.823 395.938 387.027 396.618 387.027C397.298 387.027 397.838 386.823 398.238 386.415C398.638 385.999 398.838 385.411 398.838 384.651V379.419H399.954V384.627C399.954 385.675 399.646 386.515 399.03 387.147ZM404.449 388.083C403.585 388.083 402.877 387.847 402.325 387.375C401.781 386.903 401.501 386.331 401.485 385.659H402.601C402.649 386.099 402.853 386.439 403.213 386.679C403.581 386.919 403.989 387.039 404.437 387.039C404.901 387.039 405.285 386.923 405.589 386.691C405.893 386.459 406.045 386.151 406.045 385.767C406.045 385.119 405.641 384.643 404.833 384.339L403.657 383.907C402.985 383.675 402.489 383.367 402.169 382.983C401.857 382.599 401.697 382.107 401.689 381.507C401.689 380.827 401.929 380.287 402.409 379.887C402.897 379.479 403.521 379.275 404.281 379.275C405.081 379.275 405.713 379.507 406.177 379.971C406.649 380.427 406.913 380.963 406.969 381.579H405.865C405.761 381.155 405.561 380.839 405.265 380.631C404.977 380.423 404.641 380.319 404.257 380.319C403.841 380.319 403.493 380.423 403.213 380.631C402.941 380.839 402.805 381.119 402.805 381.471C402.805 381.823 402.901 382.103 403.093 382.311C403.285 382.519 403.597 382.699 404.029 382.851L405.121 383.247C405.793 383.487 406.301 383.807 406.645 384.207C406.989 384.599 407.161 385.107 407.161 385.731C407.161 386.443 406.909 387.015 406.405 387.447C405.901 387.871 405.249 388.083 404.449 388.083ZM408.835 387.939V379.419H411.283C412.587 379.419 413.667 379.823 414.523 380.631C415.387 381.439 415.819 382.455 415.819 383.679C415.819 384.903 415.387 385.919 414.523 386.727C413.667 387.535 412.587 387.939 411.283 387.939H408.835ZM409.951 386.895H411.283C412.299 386.895 413.119 386.595 413.743 385.995C414.375 385.387 414.691 384.615 414.691 383.679C414.691 382.743 414.375 381.975 413.743 381.375C413.119 380.767 412.299 380.463 411.283 380.463H409.951V386.895ZM418.743 387.939V380.475H416.091V379.419H422.487V380.475H419.835V387.939H418.743Z" fill="black"/>
<rect x="73" y="401.939" width="350" height="10" rx="5" fill="#E9EEFF"/>
<rect x="73" y="401.939" width="66.6398" height="10" rx="5" fill="#5D5FEF"/>
<defs>
<filter id="filter0_d" x="0" y="225.939" width="496" height="80" filterUnits="userSpaceOnUse" color-interpolation-filters="sRGB">
<feFlood flood-opacity="0" result="BackgroundImageFix"/>
<feColorMatrix in="SourceAlpha" type="matrix" values="0 0 0 0 0 0 0 0 0 0 0 0 0 0 0 0 0 0 127 0" result="hardAlpha"/>
<feOffset dy="2"/>
<feGaussianBlur stdDeviation="4"/>
<feComposite in2="hardAlpha" operator="out"/>
<feColorMatrix type="matrix" values="0 0 0 0 0.364706 0 0 0 0 0.372549 0 0 0 0 0.937255 0 0 0 0.05 0"/>
<feBlend mode="normal" in2="BackgroundImageFix" result="effect1_dropShadow"/>
<feBlend mode="normal" in="SourceGraphic" in2="effect1_dropShadow" result="shape"/>
</filter>
</defs>
</svg>
